<svg width="305" height="284" viewBox="0 0 305 284" fill="none" xmlns="http://www.w3.org/2000/svg">
<rect x="0.238464" y="0.979126" width="303.878" height="282.589" fill="#202020"/>
<path d="M268.634 50.0696C266.716 48.9853 264.28 49.2733 262.693 50.7713C250.731 62.0665 236.168 69.7785 220.092 73.412C223.943 67.1044 226.903 59.9666 226.523 53.2707C226.405 51.1833 224.881 49.4013 222.763 48.918C220.644 48.4343 218.458 49.3286 217.375 51.1423C217.042 51.6759 208.977 64.1677 187.368 60.8583C174.91 58.9488 166.305 59.9818 161.061 64.0134C158.942 65.6425 156.359 68.601 155.948 73.4932C155.706 74.696 154.776 75.9434 153.236 75.9434H151.121C149.582 75.9434 148.65 74.6951 148.408 73.4923C147.997 68.6006 145.413 65.6421 143.295 64.0134C138.051 59.9822 129.445 58.9497 116.988 60.8583C95.3794 64.1704 87.3138 51.6759 87.0036 51.1797C85.9202 49.3656 83.7228 48.4548 81.6044 48.9367C79.4859 49.42 77.9507 51.1837 77.8323 53.2711C77.4525 59.9666 80.4123 67.1044 84.2633 73.4125C68.1869 69.7794 53.6239 62.0669 41.6618 50.7722C40.075 49.2738 37.6376 48.9867 35.7216 50.0705C33.8047 51.1538 32.8848 53.3393 33.4787 55.3977C39.4556 76.0955 46.6923 95.3336 56.2531 115.938C63.1114 130.716 77.8035 140.862 94.5974 142.416L97.43 142.675C99.411 142.855 101.375 142.944 103.318 142.944C113.248 142.944 122.57 140.617 130.029 136.211C139.785 130.448 146.031 121.578 148.091 110.561C148.449 108.643 150.168 107.252 152.178 107.252C154.187 107.252 155.906 108.643 156.264 110.561C158.324 121.578 164.57 130.448 174.326 136.211C183.245 141.479 194.823 143.777 206.926 142.675L209.716 142.419C215.493 141.885 221.022 140.336 226.069 137.936V226.321C226.069 226.321 226.18 230.661 226.373 231.168C227.233 233.827 229.815 235.759 232.868 235.759H248.729C251.6 235.759 254.05 234.048 255.048 231.633C255.373 231.003 255.56 230.296 255.56 229.545V98.9974C261.588 84.5146 266.564 70.3344 270.877 55.3964C271.47 53.3384 270.551 51.153 268.634 50.0696ZM245.73 226.321H235.899V131.671C239.767 128.471 243.101 124.661 245.729 120.359V226.321H245.73ZM246.48 95.388C246.174 95.8574 245.948 96.3795 245.829 96.9403C243.728 101.936 241.5 106.972 239.122 112.097C233.703 123.775 222.073 131.794 208.774 133.025L205.999 133.279C184.801 135.2 169.071 125.634 165.94 108.894C164.74 102.474 158.952 97.8146 152.177 97.8146C145.403 97.8146 139.615 102.474 138.414 108.894C135.285 125.634 119.559 135.202 98.356 133.279L95.5391 133.021C82.2642 131.792 70.6513 123.775 65.2322 112.097C58.2016 96.9457 52.4579 82.5574 47.5574 67.7553C61.3208 77.0594 77.2347 82.8284 94.3457 84.63C96.3142 84.8369 98.2157 83.8926 99.1765 82.2332C100.138 80.5739 99.9701 78.5235 98.7507 77.029C95.9023 73.5391 93.5669 70.1824 91.7847 67.0433C98.0825 70.021 106.843 71.9702 118.536 70.1779C131.367 68.2132 135.828 70.3639 137.149 71.3799C138.09 72.1031 138.529 72.9996 138.619 74.3768C138.632 74.5854 138.66 74.7919 138.701 74.9947C139.764 81.0233 144.96 85.3817 151.121 85.3817H153.235C159.384 85.3817 164.57 81.042 165.651 75.0072C165.694 74.8003 165.723 74.5903 165.736 74.3777C165.826 73.0001 166.265 72.1039 167.205 71.3808C168.527 70.3652 172.987 68.2141 185.818 70.1788C197.517 71.9711 206.273 70.0224 212.57 67.0429C210.788 70.1824 208.453 73.5391 205.604 77.0295C204.385 78.5239 204.217 80.5748 205.178 82.2337C206.139 83.8935 208.042 84.8356 210.009 84.6305C227.12 82.8298 243.034 77.0598 256.797 67.7562C253.727 77.0313 250.324 86.1454 246.48 95.388Z" fill="#E75480"/>
<path d="M199.431 93.2302C187.106 95.7456 179.721 107.54 179.412 108.042C178.113 110.153 178.714 112.868 180.796 114.288C181.222 114.579 190.025 120.496 200.351 120.496C201.991 120.496 203.669 120.347 205.358 120.002C217.683 117.487 225.068 105.692 225.377 105.191C226.677 103.079 226.075 100.364 223.993 98.944C223.499 98.6065 211.752 90.7143 199.431 93.2302ZM213.794 104.286C211.388 106.841 207.729 109.87 203.314 110.771C198.886 111.674 194.269 110.34 190.995 108.946C193.401 106.391 197.06 103.363 201.475 102.462C205.9 101.558 210.519 102.892 213.794 104.286Z" fill="#E75480"/>
<path d="M104.925 93.2302C92.5996 90.7148 80.8566 98.6069 80.3626 98.944C78.2808 100.365 77.6799 103.08 78.9792 105.191C79.288 105.692 86.6724 117.487 98.9976 120.002C100.687 120.347 102.364 120.496 104.005 120.496C114.33 120.496 123.134 114.579 123.56 114.288C125.642 112.867 126.243 110.153 124.943 108.042C124.634 107.541 117.25 95.7456 104.925 93.2302ZM101.041 110.771C96.6131 109.867 92.9609 106.846 90.5596 104.293C93.8399 102.899 98.465 101.559 102.88 102.461C107.308 103.365 110.961 106.386 113.362 108.939C110.082 110.334 105.455 111.672 101.041 110.771Z" fill="#E75480"/>
<path d="M35.7216 50.0696C37.6394 48.9853 40.0755 49.2733 41.6617 50.7713C53.6239 62.0664 68.1869 69.7785 84.2628 73.412C80.4118 67.1044 77.452 59.9666 77.8318 53.2706C77.9502 51.1832 79.4738 49.4013 81.5923 48.918C83.7112 48.4342 85.897 49.3286 86.9803 51.1422C87.3128 51.6759 95.378 64.1677 116.987 60.8582C129.445 58.9487 138.051 59.9817 143.294 64.0134C145.413 65.6425 147.996 68.601 148.407 73.4931C148.649 74.696 149.579 75.9434 151.119 75.9434H153.234C154.773 75.9434 155.705 74.6951 155.947 73.4922C156.358 68.6006 158.942 65.642 161.06 64.0134C166.305 59.9822 174.91 58.9496 187.367 60.8582C208.976 64.1703 217.041 51.6759 217.352 51.1797C218.435 49.3656 220.632 48.4547 222.751 48.9367C224.869 49.42 226.404 51.1837 226.523 53.2711C226.903 59.9666 223.943 67.1044 220.092 73.4124C236.168 69.7793 250.731 62.0669 262.693 50.7722C264.28 49.2737 266.718 48.9866 268.634 50.0704C270.55 51.1538 271.47 53.3393 270.876 55.3977C264.9 76.0954 257.663 95.3335 248.102 115.938C241.244 130.716 226.552 140.862 209.758 142.416L206.925 142.675C204.944 142.855 202.98 142.944 201.037 142.944C191.107 142.944 181.786 140.617 174.327 136.211C164.57 130.448 158.324 121.578 156.264 110.561C155.906 108.643 154.187 107.252 152.178 107.252C150.168 107.252 148.449 108.643 148.091 110.561C146.031 121.578 139.785 130.448 130.029 136.211C121.11 141.479 109.532 143.777 97.4291 142.675L94.6391 142.419C88.8619 141.885 83.3332 140.336 78.2864 137.935V226.321C78.2864 226.321 78.1754 230.661 77.9818 231.168C77.1223 233.827 74.5399 235.759 71.4876 235.759H55.6257C52.7555 235.759 50.305 234.048 49.3076 231.633C48.9825 231.003 48.7954 230.296 48.7954 229.545V98.9974C42.7674 84.5145 37.7912 70.3344 33.4787 55.3964C32.8847 53.3384 33.8046 51.1529 35.7216 50.0696ZM58.6256 226.321H68.4562V131.671C64.588 128.471 61.2539 124.661 58.626 120.359V226.321H58.6256ZM57.8747 95.3879C58.1807 95.8574 58.4073 96.3795 58.5267 96.9403C60.6275 101.936 62.855 106.972 65.2331 112.097C70.6522 123.775 82.2818 131.794 95.5813 133.025L98.3559 133.279C119.554 135.2 135.284 125.634 138.416 108.894C139.615 102.474 145.403 97.8146 152.178 97.8146C158.952 97.8146 164.741 102.474 165.941 108.894C169.07 125.634 184.796 135.202 205.999 133.279L208.816 133.021C222.091 131.792 233.704 123.775 239.123 112.097C246.154 96.9457 251.897 82.5573 256.798 67.7553C243.034 77.0593 227.12 82.8284 210.009 84.63C208.041 84.8369 206.139 83.8926 205.179 82.2332C204.217 80.5738 204.385 78.5234 205.604 77.029C208.453 73.539 210.788 70.1824 212.57 67.0433C206.273 70.021 197.512 71.9702 185.819 70.1779C172.988 68.2131 168.527 70.3638 167.206 71.3799C166.265 72.103 165.826 72.9996 165.737 74.3768C165.723 74.5854 165.695 74.7918 165.654 74.9947C164.591 81.0232 159.395 85.3817 153.234 85.3817H151.12C144.971 85.3817 139.785 81.042 138.704 75.0072C138.661 74.8003 138.632 74.5903 138.619 74.3777C138.529 73 138.091 72.1039 137.15 71.3808C135.828 70.3652 131.368 68.214 118.537 70.1788C106.839 71.9711 98.0824 70.0223 91.7847 67.0428C93.5669 70.1824 95.9022 73.539 98.7511 77.0295C99.9706 78.5239 100.138 80.5747 99.1769 82.2337C98.2162 83.8935 96.3127 84.8355 94.3461 84.6305C77.2351 82.8297 61.3212 77.0598 47.5578 67.7562C50.6282 77.0312 54.0316 86.1454 57.8747 95.3879Z" fill="#E75480"/>
<path d="M104.924 93.2304C117.249 95.7457 124.634 107.541 124.943 108.042C126.243 110.153 125.641 112.868 123.56 114.288C123.133 114.579 114.33 120.496 104.004 120.496C102.364 120.496 100.686 120.347 98.9968 120.002C86.672 117.487 79.2872 105.692 78.9784 105.191C77.6786 103.079 78.2799 100.365 80.3617 98.9441C80.8558 98.6066 92.6029 90.7145 104.924 93.2304ZM90.5611 104.287C92.9675 106.842 96.6262 109.87 101.041 110.771C105.47 111.674 110.086 110.34 113.36 108.946C110.954 106.391 107.296 103.363 102.88 102.462C98.4549 101.558 93.8358 102.892 90.5611 104.287Z" fill="#E75480"/>
<path d="M199.43 93.2302C211.755 90.7148 223.498 98.6069 223.992 98.944C226.074 100.365 226.675 103.08 225.376 105.191C225.067 105.692 217.683 117.487 205.357 120.002C203.668 120.347 201.991 120.496 200.35 120.496C190.025 120.496 181.221 114.579 180.795 114.288C178.713 112.867 178.112 110.153 179.412 108.042C179.721 107.541 187.105 95.7456 199.43 93.2302ZM203.314 110.771C207.742 109.867 211.394 106.846 213.795 104.293C210.515 102.899 205.89 101.559 201.475 102.461C197.047 103.365 193.394 106.386 190.993 108.939C194.273 110.334 198.9 111.672 203.314 110.771Z" fill="#E75480"/>
</svg>
